<?xml version="1.0" encoding="UTF-8"?>
<svg id="Layer_2" data-name="Layer 2" xmlns="http://www.w3.org/2000/svg" viewBox="0 0 567.25 565.98">
  <defs>
    <style>
      .cls-1 {
        fill: #002247;
      }
    </style>
  </defs>
  <g id="Layer_1-2" data-name="Layer 1">
    <g>
      <path class="cls-1" d="M566.61,265.13c7.03,102.29-44.63,202.13-131.24,257.22-2.36,1.5-5.28,1.86-7.95,1.01-2.84-.91-6.5-2.16-8.97-3.61-26.48-15.7-60.79-50.38-63.86-82.36-1.8-18.78,8.68-38.39-9.6-53.27-23.79-19.37-76.94-6.3-91.35-23.51-4.83-5.77-12.02-24.77-14.6-32.56-15.11-45.58-10.48-123.63-83.53-90.56-61.81,27.97-93.47,104.34-106.83,170.56-1.79,8.88-13.74,10.44-17.92,2.41C-36.41,281.36,9.91,118.35,135.74,41.78c3.17-1.93,12.2-7.58,17.87-10.35,2.46-1.2,5.28-1.52,7.91-.74.62.18,1.21.39,1.71.64,9.93,4.9,31.52,23.14,41.48,30.91,11.73,9.15,30.99,22.94,40.31,33.6,30.95,35.42,55.55,145.82,121.96,118.62,32.4-13.27,28.48-45.02,43.08-68.55,13.83-22.3,26.24-5.47,34.36,10.14,15.36,29.53,27.42,96.82,58.46,111.33,14.17,6.62,29.31,2.74,41.17-6.59.92-.73,2.21-1.85,3.68-3.21,6.98-6.43,15.43-18.33,18.88,7.56Z"/>
      <path class="cls-1" d="M105.43,343.01c14.06-31.66,34.39-61.24,66.57-74.6,7.95-3.3,17.01,1.14,19.41,9.4.03.1.06.2.08.29,9.94,33.66,15.58,95.13,48.14,115.34,20.52,12.73,44.46,10.86,67.35,13.91,7.71,1.03,13.26,7.93,12.82,15.7l-.02.38c-2.32,45.27,22.9,77.63,53.18,105.2,8.61,7.84,5.21,22.06-5.94,25.39-101.31,30.29-214.01,2.2-287.15-74.09-3.26-3.4-6.12-10.1-6.35-14.81-1.28-26.97,15.96-86.19,31.91-122.1Z"/>
      <path class="cls-1" d="M551.17,194.83c.17,2.02-1.94,6.26-2.68,7.73-4.32,8.56-8.59,12.22-14.66,19.74-1.65,2.04-5.35,6.36-9.09,9.45-3.62,2.99-9.11,2.08-11.67-1.87-20.17-31.11-24.55-70.71-45.29-101.86-29.17-43.83-75.34-32.31-94.12,12.98-6.62,15.97-13.4,61.15-39.72,35.76-16.69-16.1-30.14-51.74-42.23-72.54-20.4-35.12-49.88-57.39-80.17-81.28-5.27-4.16-3.41-12.56,3.12-14.11,12.62-2.98,25.27-5.87,38.21-7.25,123.03-13.15,242.91,56.5,291.16,169.72,2.09,4.9,6.54,16.35,7.13,23.52Z"/>
    </g>
  </g>
</svg>