<?xml version="1.0" encoding="UTF-8"?>
<svg id="Layer_2" data-name="Layer 2" xmlns="http://www.w3.org/2000/svg" viewBox="0 0 824.79 246.73">
  <defs>
    <style>
      .cls-1 {
        fill: #fff;
      }
    </style>
  </defs>
  <g id="Layer_1-2" data-name="Layer 1">
    <g>
      <g>
        <path class="cls-1" d="M247,115.58c3.06,44.59-19.46,88.12-57.21,112.13-1.03.66-2.3.81-3.47.44-1.24-.4-2.84-.94-3.91-1.58-11.55-6.84-26.5-21.96-27.84-35.91-.78-8.19,3.79-16.73-4.18-23.22-10.37-8.45-33.54-2.74-39.82-10.25-2.11-2.52-5.24-10.8-6.36-14.19-6.59-19.87-4.57-53.89-36.42-39.48-26.94,12.19-40.75,45.49-46.57,74.35-.78,3.87-5.99,4.55-7.81,1.05C-15.87,122.65,4.32,51.59,59.17,18.21c1.38-.84,5.32-3.3,7.79-4.51,1.07-.52,2.3-.66,3.45-.32.27.08.53.17.74.28,4.33,2.13,13.74,10.09,18.08,13.47,5.11,3.99,13.51,10,17.57,14.65,13.49,15.44,24.22,63.57,53.16,51.71,14.12-5.78,12.42-19.62,18.78-29.88,6.03-9.72,11.44-2.38,14.98,4.42,6.7,12.87,11.95,42.21,25.48,48.53,6.18,2.89,12.78,1.19,17.95-2.87.4-.32.96-.81,1.61-1.4,3.04-2.8,6.73-7.99,8.23,3.3Z"/>
        <path class="cls-1" d="M45.96,149.53c6.13-13.8,14.99-26.69,29.02-32.52,3.46-1.44,7.42.5,8.46,4.1.01.04.02.09.04.12,4.33,14.67,6.79,41.47,20.99,50.28,8.94,5.55,19.38,4.74,29.36,6.06,3.36.45,5.78,3.46,5.59,6.84v.17c-1.02,19.74,9.97,33.84,23.17,45.86,3.75,3.42,2.27,9.61-2.59,11.07-44.16,13.2-93.29.96-125.18-32.3-1.42-1.48-2.67-4.4-2.77-6.45-.56-11.76,6.96-37.57,13.91-53.23Z"/>
        <path class="cls-1" d="M240.27,84.93c.07.88-.85,2.73-1.17,3.37-1.88,3.73-3.74,5.33-6.39,8.6-.72.89-2.33,2.77-3.96,4.12-1.58,1.3-3.97.9-5.09-.81-8.79-13.56-10.7-30.82-19.74-44.41-12.72-19.11-32.84-14.08-41.03,5.66-2.89,6.96-5.84,26.66-17.31,15.59-7.27-7.02-13.14-22.56-18.41-31.62-8.89-15.31-21.75-25.02-34.95-35.43-2.3-1.81-1.49-5.48,1.36-6.15,5.5-1.3,11.02-2.56,16.66-3.16,53.63-5.73,105.89,24.63,126.92,73.99.91,2.14,2.85,7.13,3.11,10.25Z"/>
      </g>
      <g>
        <path class="cls-1" d="M320.94,103.45c4.82-8.93,11.38-15.88,19.68-20.83,8.3-4.95,17.48-7.43,27.53-7.43,9.07,0,16.99,1.78,23.76,5.34,6.77,3.56,12.18,7.99,16.23,13.29v-16.75h24.08v115.37h-24.08v-17.17c-4.05,5.44-9.56,9.98-16.54,13.61-6.98,3.63-14.94,5.44-23.87,5.44-9.91,0-18.98-2.55-27.22-7.64-8.24-5.09-14.76-12.21-19.58-21.36-4.82-9.14-7.22-19.5-7.22-31.09s2.41-21.84,7.22-30.78ZM403.23,113.92c-3.28-5.86-7.57-10.33-12.88-13.4-5.31-3.07-11.03-4.61-17.17-4.61s-11.87,1.5-17.17,4.5c-5.31,3-9.6,7.4-12.88,13.19-3.28,5.79-4.92,12.67-4.92,20.62s1.64,14.94,4.92,20.94c3.28,6,7.61,10.57,12.98,13.71,5.37,3.14,11.06,4.71,17.06,4.71s11.86-1.53,17.17-4.61c5.3-3.07,9.6-7.57,12.88-13.51,3.28-5.93,4.92-12.88,4.92-20.83s-1.64-14.87-4.92-20.73Z"/>
        <path class="cls-1" d="M491.48,96.54v63.86c0,4.33,1.01,7.43,3.04,9.32,2.02,1.88,5.48,2.83,10.36,2.83h14.66v19.89h-18.84c-10.75,0-18.98-2.51-24.71-7.54-5.72-5.02-8.58-13.19-8.58-24.5v-63.86h-13.61v-19.47h13.61v-28.68h24.08v28.68h28.06v19.47h-28.06Z"/>
        <path class="cls-1" d="M565.38,37.49v154.94h-23.87V37.49h23.87Z"/>
        <path class="cls-1" d="M596.05,103.45c4.82-8.93,11.38-15.88,19.68-20.83,8.3-4.95,17.48-7.43,27.53-7.43,9.07,0,16.99,1.78,23.76,5.34,6.77,3.56,12.18,7.99,16.23,13.29v-16.75h24.08v115.37h-24.08v-17.17c-4.05,5.44-9.56,9.98-16.54,13.61-6.98,3.63-14.94,5.44-23.87,5.44-9.91,0-18.98-2.55-27.22-7.64-8.24-5.09-14.76-12.21-19.58-21.36-4.82-9.14-7.22-19.5-7.22-31.09s2.41-21.84,7.22-30.78ZM678.34,113.92c-3.28-5.86-7.57-10.33-12.88-13.4-5.31-3.07-11.03-4.61-17.17-4.61s-11.87,1.5-17.17,4.5c-5.31,3-9.6,7.4-12.88,13.19-3.28,5.79-4.92,12.67-4.92,20.62s1.64,14.94,4.92,20.94c3.28,6,7.61,10.57,12.98,13.71,5.37,3.14,11.06,4.71,17.06,4.71s11.86-1.53,17.17-4.61c5.3-3.07,9.6-7.57,12.88-13.51,3.28-5.93,4.92-12.88,4.92-20.83s-1.64-14.87-4.92-20.73Z"/>
        <path class="cls-1" d="M756.22,189.4c-7.19-3.28-12.88-7.75-17.06-13.4-4.19-5.65-6.42-11.97-6.7-18.95h24.71c.42,4.89,2.75,8.97,7.01,12.25,4.26,3.28,9.6,4.92,16.02,4.92s11.9-1.29,15.6-3.87c3.7-2.58,5.55-5.89,5.55-9.95,0-4.32-2.06-7.54-6.18-9.63-4.12-2.09-10.64-4.4-19.58-6.91-8.66-2.37-15.7-4.67-21.15-6.91-5.44-2.23-10.15-5.65-14.13-10.26s-5.97-10.68-5.97-18.22c0-6.14,1.81-11.76,5.44-16.85,3.63-5.09,8.83-9.11,15.6-12.04,6.77-2.93,14.55-4.4,23.35-4.4,13.12,0,23.69,3.32,31.72,9.95,8.03,6.63,12.32,15.67,12.88,27.11h-23.87c-.42-5.16-2.51-9.28-6.28-12.35-3.77-3.07-8.87-4.61-15.28-4.61s-11.1,1.19-14.45,3.56c-3.35,2.38-5.02,5.52-5.02,9.42,0,3.07,1.12,5.65,3.35,7.75,2.23,2.09,4.95,3.74,8.17,4.92,3.21,1.19,7.96,2.69,14.24,4.5,8.37,2.23,15.25,4.5,20.62,6.81,5.37,2.3,10.01,5.69,13.92,10.15,3.91,4.47,5.93,10.4,6.07,17.8,0,6.56-1.82,12.43-5.44,17.59-3.63,5.17-8.76,9.21-15.39,12.14-6.63,2.93-14.41,4.4-23.35,4.4s-17.2-1.64-24.39-4.92Z"/>
      </g>
    </g>
  </g>
</svg>