<?xml version="1.0" encoding="UTF-8"?>
<svg id="Layer_2" data-name="Layer 2" xmlns="http://www.w3.org/2000/svg" viewBox="0 0 511.07 156.82">
  <g id="Layer_1-2" data-name="Layer 1">
    <g>
      <path d="M7.22,65.95c4.82-8.93,11.38-15.88,19.68-20.83,8.3-4.95,17.48-7.43,27.53-7.43,9.07,0,16.99,1.78,23.76,5.34,6.77,3.56,12.18,7.99,16.23,13.29v-16.75h24.08v115.37h-24.08v-17.17c-4.05,5.44-9.56,9.98-16.54,13.61-6.98,3.63-14.94,5.44-23.87,5.44-9.91,0-18.98-2.55-27.22-7.64-8.24-5.09-14.76-12.21-19.58-21.36-4.82-9.14-7.22-19.5-7.22-31.09s2.41-21.84,7.22-30.78ZM89.51,76.42c-3.28-5.86-7.57-10.33-12.88-13.4-5.31-3.07-11.03-4.61-17.17-4.61s-11.87,1.5-17.17,4.5c-5.31,3-9.6,7.4-12.88,13.19-3.28,5.79-4.92,12.67-4.92,20.62s1.64,14.94,4.92,20.94c3.28,6,7.61,10.57,12.98,13.71,5.37,3.14,11.06,4.71,17.06,4.71s11.86-1.53,17.17-4.61c5.3-3.07,9.6-7.57,12.88-13.51,3.28-5.93,4.92-12.88,4.92-20.83s-1.64-14.87-4.92-20.73Z"/>
      <path d="M177.76,59.04v63.86c0,4.33,1.01,7.43,3.04,9.32,2.02,1.88,5.48,2.83,10.36,2.83h14.66v19.89h-18.84c-10.75,0-18.98-2.51-24.71-7.54-5.72-5.02-8.58-13.19-8.58-24.5v-63.86h-13.61v-19.47h13.61V10.89h24.08v28.68h28.06v19.47h-28.06Z"/>
      <path d="M251.66,0v154.94h-23.87V0h23.87Z"/>
      <path d="M282.33,65.95c4.82-8.93,11.38-15.88,19.68-20.83,8.3-4.95,17.48-7.43,27.53-7.43,9.07,0,16.99,1.78,23.76,5.34,6.77,3.56,12.18,7.99,16.23,13.29v-16.75h24.08v115.37h-24.08v-17.17c-4.05,5.44-9.56,9.98-16.54,13.61-6.98,3.63-14.94,5.44-23.87,5.44-9.91,0-18.98-2.55-27.22-7.64-8.24-5.09-14.76-12.21-19.58-21.36-4.82-9.14-7.22-19.5-7.22-31.09s2.41-21.84,7.22-30.78ZM364.62,76.42c-3.28-5.86-7.57-10.33-12.88-13.4-5.31-3.07-11.03-4.61-17.17-4.61s-11.87,1.5-17.17,4.5c-5.31,3-9.6,7.4-12.88,13.19-3.28,5.79-4.92,12.67-4.92,20.62s1.64,14.94,4.92,20.94c3.28,6,7.61,10.57,12.98,13.71,5.37,3.14,11.06,4.71,17.06,4.71s11.86-1.53,17.17-4.61c5.3-3.07,9.6-7.57,12.88-13.51,3.28-5.93,4.92-12.88,4.92-20.83s-1.64-14.87-4.92-20.73Z"/>
      <path d="M442.5,151.9c-7.19-3.28-12.88-7.75-17.06-13.4s-6.42-11.97-6.7-18.95h24.71c.42,4.89,2.75,8.97,7.01,12.25,4.26,3.28,9.6,4.92,16.02,4.92s11.9-1.29,15.6-3.87c3.7-2.58,5.55-5.89,5.55-9.95,0-4.32-2.06-7.54-6.18-9.63-4.12-2.09-10.64-4.4-19.58-6.91-8.66-2.37-15.7-4.67-21.15-6.91-5.44-2.23-10.15-5.65-14.13-10.26-3.98-4.61-5.97-10.68-5.97-18.22,0-6.14,1.81-11.76,5.44-16.85,3.63-5.09,8.83-9.11,15.6-12.04,6.77-2.93,14.55-4.4,23.35-4.4,13.12,0,23.69,3.32,31.72,9.95,8.03,6.63,12.32,15.67,12.88,27.11h-23.87c-.42-5.16-2.51-9.28-6.28-12.35-3.77-3.07-8.87-4.61-15.28-4.61s-11.1,1.19-14.45,3.56c-3.35,2.38-5.02,5.52-5.02,9.42,0,3.07,1.12,5.65,3.35,7.75,2.23,2.09,4.95,3.74,8.17,4.92,3.21,1.19,7.96,2.69,14.24,4.5,8.37,2.23,15.25,4.5,20.62,6.81,5.37,2.3,10.01,5.69,13.92,10.15,3.91,4.47,5.93,10.4,6.07,17.8,0,6.56-1.82,12.43-5.44,17.59-3.63,5.17-8.76,9.21-15.39,12.14-6.63,2.93-14.41,4.4-23.35,4.4s-17.2-1.64-24.39-4.92Z"/>
    </g>
  </g>
</svg>